<svg xmlns="http://www.w3.org/2000/svg" xmlns:xlink="http://www.w3.org/1999/xlink" width="500" zoomAndPan="magnify" viewBox="0 0 375 374.999991" height="500" preserveAspectRatio="xMidYMid meet" version="1.0"><defs><clipPath id="id1"><path d="M 213.132812 122.59375 L 223.632812 122.59375 L 223.632812 140.59375 L 213.132812 140.59375 Z M 213.132812 122.59375 " clip-rule="nonzero"/></clipPath><clipPath id="id2"><path d="M 214.398438 115.277344 L 218.148438 115.277344 L 218.148438 121.277344 L 214.398438 121.277344 Z M 214.398438 115.277344 " clip-rule="nonzero"/></clipPath><clipPath id="id3"><path d="M 211.785156 114.910156 L 217.785156 114.910156 L 217.785156 118.660156 L 211.785156 118.660156 Z M 211.785156 114.910156 " clip-rule="nonzero"/></clipPath><clipPath id="id4"><path d="M 211.492188 114.445312 L 217.492188 114.445312 L 217.492188 118.195312 L 211.492188 118.195312 Z M 211.492188 114.445312 " clip-rule="nonzero"/></clipPath><clipPath id="id5"><path d="M 212.402344 138.402344 L 222.902344 138.402344 L 222.902344 235.152344 L 212.402344 235.152344 Z M 212.402344 138.402344 " clip-rule="nonzero"/></clipPath><clipPath id="id6"><path d="M 199 225 L 222 225 L 222 255 L 199 255 Z M 199 225 " clip-rule="nonzero"/></clipPath><clipPath id="id7"><path d="M 212.410156 225.785156 L 221.53125 230.984375 L 208.160156 254.441406 L 199.039062 249.242188 Z M 212.410156 225.785156 " clip-rule="nonzero"/></clipPath><clipPath id="id8"><path d="M 187 243 L 209 243 L 209 262 L 187 262 Z M 187 243 " clip-rule="nonzero"/></clipPath><clipPath id="id9"><path d="M 203.1875 243.300781 L 208.570312 252.316406 L 193.113281 261.542969 L 187.730469 252.527344 Z M 203.1875 243.300781 " clip-rule="nonzero"/></clipPath><clipPath id="id10"><path d="M 174.3125 250.988281 L 192.3125 250.988281 L 192.3125 261.488281 L 174.3125 261.488281 Z M 174.3125 250.988281 " clip-rule="nonzero"/></clipPath><clipPath id="id11"><path d="M 158 247 L 179 247 L 179 262 L 158 262 Z M 158 247 " clip-rule="nonzero"/></clipPath><clipPath id="id12"><path d="M 178.117188 250.933594 L 175.828125 261.179688 L 158.261719 257.253906 L 160.550781 247.003906 Z M 178.117188 250.933594 " clip-rule="nonzero"/></clipPath><clipPath id="id13"><path d="M 150 243 L 172 243 L 172 261 L 150 261 Z M 150 243 " clip-rule="nonzero"/></clipPath><clipPath id="id14"><path d="M 171.464844 250.691406 L 167.105469 260.242188 L 150.730469 252.773438 L 155.089844 243.21875 Z M 171.464844 250.691406 " clip-rule="nonzero"/></clipPath><clipPath id="id15"><path d="M 148 246 L 155 246 L 155 253 L 148 253 Z M 148 246 " clip-rule="nonzero"/></clipPath><clipPath id="id16"><path d="M 148.242188 249.886719 L 151.527344 246.8125 L 154.089844 249.546875 L 150.804688 252.625 Z M 148.242188 249.886719 " clip-rule="nonzero"/></clipPath><clipPath id="id17"><path d="M 146 245 L 152 245 L 152 251 L 146 251 Z M 146 245 " clip-rule="nonzero"/></clipPath><clipPath id="id18"><path d="M 149.101562 245.320312 L 151.535156 248.171875 L 148.679688 250.605469 L 146.25 247.75 Z M 149.101562 245.320312 " clip-rule="nonzero"/></clipPath><clipPath id="id19"><path d="M 145.601562 223.675781 L 156.101562 223.675781 L 156.101562 241.675781 L 145.601562 241.675781 Z M 145.601562 223.675781 " clip-rule="nonzero"/></clipPath><clipPath id="id20"><path d="M 152 232 L 159 232 L 159 239 L 152 239 Z M 152 232 " clip-rule="nonzero"/></clipPath><clipPath id="id21"><path d="M 152.777344 233.566406 L 157.117188 232.386719 L 158.496094 237.453125 L 154.152344 238.632812 Z M 152.777344 233.566406 " clip-rule="nonzero"/></clipPath><clipPath id="id22"><path d="M 154 234 L 161 234 L 161 242 L 154 242 Z M 154 234 " clip-rule="nonzero"/></clipPath><clipPath id="id23"><path d="M 154.636719 236.539062 L 157.957031 234.796875 L 160.75 240.109375 L 157.429688 241.851562 Z M 154.636719 236.539062 " clip-rule="nonzero"/></clipPath><clipPath id="id24"><path d="M 144.042969 215.539062 L 147.792969 215.539062 L 147.792969 222.289062 L 144.042969 222.289062 Z M 144.042969 215.539062 " clip-rule="nonzero"/></clipPath><clipPath id="id25"><path d="M 146.640625 218.515625 L 150.390625 218.515625 L 150.390625 222.265625 L 146.640625 222.265625 Z M 146.640625 218.515625 " clip-rule="nonzero"/></clipPath><clipPath id="id26"><path d="M 145 215 L 151 215 L 151 221 L 145 221 Z M 145 215 " clip-rule="nonzero"/></clipPath><clipPath id="id27"><path d="M 145 218.332031 L 147.597656 215.628906 L 150.300781 218.230469 L 147.703125 220.933594 Z M 145 218.332031 " clip-rule="nonzero"/></clipPath></defs><path stroke-linecap="butt" transform="matrix(0.77809, 0, 0, 0.77809, 123.979904, 49.491189)" fill="none" stroke-linejoin="miter" d="M 96.06927 82.474844 L 119.865513 82.474844 L 119.865513 209.598992 C 119.865513 226.778474 114.70464 240.217829 104.387915 249.917057 C 94.071189 259.616285 80.325596 264.465899 63.146114 264.465899 C 45.308973 264.465899 31.41779 259.902442 21.467547 250.780549 C 11.522324 241.653636 6.552223 228.871941 6.552223 212.435464 L 30.222958 212.435464 C 30.222958 222.707007 33.039349 230.724433 38.67213 236.477702 C 44.299891 242.230971 52.457886 245.107605 63.146114 245.107605 C 72.925667 245.107605 80.837667 242.025138 86.882113 235.860205 C 92.921539 229.695271 95.983925 221.065368 96.06927 209.965474 Z M 96.06927 82.474844 " stroke="#000000" stroke-width="1.736089" stroke-opacity="1" stroke-miterlimit="4"/><path stroke-linecap="butt" transform="matrix(0.77809, 0, 0, 0.77809, 133.288985, 57.752965)" fill="none" stroke-linejoin="miter" d="M 96.068644 82.47477 L 119.864887 82.47477 L 119.864887 209.598918 C 119.864887 226.7784 114.704014 240.217755 104.387289 249.916983 C 94.075583 259.616211 80.32497 264.465825 63.145488 264.465825 C 45.308346 264.465825 31.417164 259.902368 21.471941 250.780475 C 11.521698 241.653562 6.551596 228.871867 6.551596 212.43539 L 30.222332 212.43539 C 30.222332 222.706933 33.038722 230.724359 38.671504 236.477628 C 44.299265 242.230897 52.45726 245.107531 63.145488 245.107531 C 72.925041 245.107531 80.837041 242.025064 86.881487 235.860131 C 92.920913 229.695197 95.983299 221.065294 96.068644 209.965401 Z M 96.068644 82.47477 " stroke="#000000" stroke-width="1.736089" stroke-opacity="1" stroke-miterlimit="4"/><path stroke-linecap="butt" transform="matrix(1.131315, 1.009583, -0.998737, 1.119162, 217.49706, 113.637055)" fill="none" stroke-linejoin="miter" d="M -0.00062299 0.0002616 L 7.91992 -0.0000512262 " stroke="#000000" stroke-width="1" stroke-opacity="1" stroke-miterlimit="4"/><path stroke-linecap="butt" transform="matrix(1.131315, 1.009583, -0.998737, 1.119162, 199.047061, 114.687048)" fill="none" stroke-linejoin="miter" d="M 0.000107087 0.000307567 L 7.92065 -0.00000525894 " stroke="#000000" stroke-width="1" stroke-opacity="1" stroke-miterlimit="4"/><path stroke-linecap="butt" transform="matrix(1.139567, 1.039613, -1.010947, 1.108145, 147.741703, 214.671929)" fill="none" stroke-linejoin="miter" d="M 0.000208499 -0.000244428 L 8.270982 -0.000915846 " stroke="#000000" stroke-width="1" stroke-opacity="1" stroke-miterlimit="4"/><path stroke-linecap="butt" transform="matrix(1.139567, 1.039613, -1.010947, 1.108145, 128.991704, 215.121929)" fill="none" stroke-linejoin="miter" d="M -0.000133422 -0.000628633 L 8.27064 -0.00130005 " stroke="#000000" stroke-width="1" stroke-opacity="1" stroke-miterlimit="4"/><g clip-path="url(#id1)"><path fill="#ffffff" d="M 213.132812 122.597656 L 223.632812 122.597656 L 223.632812 140.59375 L 213.132812 140.59375 L 213.132812 122.597656 " fill-opacity="1" fill-rule="nonzero"/></g><g clip-path="url(#id2)"><path fill="#ffffff" d="M 214.402344 115.277344 L 218.148438 115.277344 L 218.148438 121.277344 L 214.402344 121.277344 L 214.402344 115.277344 " fill-opacity="1" fill-rule="nonzero"/></g><g clip-path="url(#id3)"><path fill="#ffffff" d="M 217.785156 114.914062 L 217.785156 118.65625 L 211.785156 118.65625 L 211.785156 114.914062 L 217.785156 114.914062 " fill-opacity="1" fill-rule="nonzero"/></g><g clip-path="url(#id4)"><path fill="#ffffff" d="M 217.492188 114.449219 L 217.492188 118.191406 L 211.492188 118.191406 L 211.492188 114.449219 L 217.492188 114.449219 " fill-opacity="1" fill-rule="nonzero"/></g><g clip-path="url(#id5)"><path fill="#ffffff" d="M 212.402344 138.421875 L 222.902344 138.421875 L 222.902344 235.132812 L 212.402344 235.132812 L 212.402344 138.421875 " fill-opacity="1" fill-rule="nonzero"/></g><g clip-path="url(#id6)"><g clip-path="url(#id7)"><path fill="#ffffff" d="M 212.40625 225.792969 L 221.527344 230.992188 L 208.164062 254.4375 L 199.042969 249.238281 L 212.40625 225.792969 " fill-opacity="1" fill-rule="nonzero"/></g></g><g clip-path="url(#id8)"><g clip-path="url(#id9)"><path fill="#ffffff" d="M 203.183594 243.304688 L 208.566406 252.320312 L 193.113281 261.542969 L 187.734375 252.527344 L 203.183594 243.304688 " fill-opacity="1" fill-rule="nonzero"/></g></g><g clip-path="url(#id10)"><path fill="#ffffff" d="M 192.3125 250.988281 L 192.3125 261.488281 L 174.316406 261.488281 L 174.316406 250.988281 L 192.3125 250.988281 " fill-opacity="1" fill-rule="nonzero"/></g><g clip-path="url(#id11)"><g clip-path="url(#id12)"><path fill="#ffffff" d="M 178.117188 250.929688 L 175.828125 261.179688 L 158.265625 257.253906 L 160.554688 247.007812 L 178.117188 250.929688 " fill-opacity="1" fill-rule="nonzero"/></g></g><g clip-path="url(#id13)"><g clip-path="url(#id14)"><path fill="#ffffff" d="M 171.464844 250.691406 L 167.105469 260.242188 L 150.734375 252.773438 L 155.089844 243.21875 L 171.464844 250.691406 " fill-opacity="1" fill-rule="nonzero"/></g></g><g clip-path="url(#id15)"><g clip-path="url(#id16)"><path fill="#ffffff" d="M 148.246094 249.886719 L 151.53125 246.8125 L 154.089844 249.546875 L 150.804688 252.621094 L 148.246094 249.886719 " fill-opacity="1" fill-rule="nonzero"/></g></g><g clip-path="url(#id17)"><g clip-path="url(#id18)"><path fill="#ffffff" d="M 149.101562 245.320312 L 151.535156 248.171875 L 148.679688 250.605469 L 146.25 247.75 L 149.101562 245.320312 " fill-opacity="1" fill-rule="nonzero"/></g></g><g clip-path="url(#id19)"><path fill="#ffffff" d="M 145.601562 223.679688 L 156.101562 223.679688 L 156.101562 241.675781 L 145.601562 241.675781 L 145.601562 223.679688 " fill-opacity="1" fill-rule="nonzero"/></g><g clip-path="url(#id20)"><g clip-path="url(#id21)"><path fill="#ffffff" d="M 152.777344 233.570312 L 157.121094 232.390625 L 158.496094 237.449219 L 154.152344 238.628906 L 152.777344 233.570312 " fill-opacity="1" fill-rule="nonzero"/></g></g><g clip-path="url(#id22)"><g clip-path="url(#id23)"><path fill="#ffffff" d="M 154.636719 236.542969 L 157.957031 234.796875 L 160.746094 240.109375 L 157.429688 241.851562 L 154.636719 236.542969 " fill-opacity="1" fill-rule="nonzero"/></g></g><g clip-path="url(#id24)"><path fill="#ffffff" d="M 144.042969 215.550781 L 147.792969 215.550781 L 147.792969 222.28125 L 144.042969 222.28125 L 144.042969 215.550781 " fill-opacity="1" fill-rule="nonzero"/></g><g clip-path="url(#id25)"><path fill="#ffffff" d="M 146.640625 218.515625 L 150.390625 218.515625 L 150.390625 222.265625 L 146.640625 222.265625 L 146.640625 218.515625 " fill-opacity="1" fill-rule="nonzero"/></g><g clip-path="url(#id26)"><g clip-path="url(#id27)"><path fill="#ffffff" d="M 145 218.332031 L 147.597656 215.628906 L 150.300781 218.230469 L 147.703125 220.933594 L 145 218.332031 " fill-opacity="1" fill-rule="nonzero"/></g></g></svg>