<svg xmlns="http://www.w3.org/2000/svg" xmlns:xlink="http://www.w3.org/1999/xlink" width="500" zoomAndPan="magnify" viewBox="0 0 375 374.999991" height="500" preserveAspectRatio="xMidYMid meet" version="1.0"><path stroke-linecap="butt" transform="matrix(0.77809, 0, 0, 0.77809, 123.979904, 49.491189)" fill="none" stroke-linejoin="miter" d="M 96.06927 82.474844 L 119.865513 82.474844 L 119.865513 209.598992 C 119.865513 226.778474 114.70464 240.217829 104.387915 249.917057 C 94.071189 259.616285 80.325596 264.465899 63.146114 264.465899 C 45.308973 264.465899 31.41779 259.902442 21.467547 250.780549 C 11.522324 241.653636 6.552223 228.871941 6.552223 212.435464 L 30.222958 212.435464 C 30.222958 222.707007 33.039349 230.724433 38.67213 236.477702 C 44.299891 242.230971 52.457886 245.107605 63.146114 245.107605 C 72.925667 245.107605 80.837667 242.025138 86.882113 235.860205 C 92.921539 229.695271 95.983925 221.065368 96.06927 209.965474 Z M 96.06927 82.474844 " stroke="#000000" stroke-width="1.736089" stroke-opacity="1" stroke-miterlimit="4"/><path stroke-linecap="butt" transform="matrix(0.77809, 0, 0, 0.77809, 133.288985, 57.752965)" fill="none" stroke-linejoin="miter" d="M 96.068644 82.47477 L 119.864887 82.47477 L 119.864887 209.598918 C 119.864887 226.7784 114.704014 240.217755 104.387289 249.916983 C 94.075583 259.616211 80.32497 264.465825 63.145488 264.465825 C 45.308346 264.465825 31.417164 259.902368 21.471941 250.780475 C 11.521698 241.653562 6.551596 228.871867 6.551596 212.43539 L 30.222332 212.43539 C 30.222332 222.706933 33.038722 230.724359 38.671504 236.477628 C 44.299265 242.230897 52.45726 245.107531 63.145488 245.107531 C 72.925041 245.107531 80.837041 242.025064 86.881487 235.860131 C 92.920913 229.695197 95.983299 221.065294 96.068644 209.965401 Z M 96.068644 82.47477 " stroke="#000000" stroke-width="1.736089" stroke-opacity="1" stroke-miterlimit="4"/><path stroke-linecap="butt" transform="matrix(1.131315, 1.009583, -0.998737, 1.119162, 217.49706, 113.637055)" fill="none" stroke-linejoin="miter" d="M -0.00062299 0.0002616 L 7.91992 -0.0000512262 " stroke="#000000" stroke-width="1" stroke-opacity="1" stroke-miterlimit="4"/><path stroke-linecap="butt" transform="matrix(1.131315, 1.009583, -0.998737, 1.119162, 199.047061, 114.687048)" fill="none" stroke-linejoin="miter" d="M 0.000107087 0.000307567 L 7.92065 -0.00000525894 " stroke="#000000" stroke-width="1" stroke-opacity="1" stroke-miterlimit="4"/><path stroke-linecap="butt" transform="matrix(1.139567, 1.039613, -1.010947, 1.108145, 147.741703, 214.671929)" fill="none" stroke-linejoin="miter" d="M 0.000208499 -0.000244428 L 8.270982 -0.000915846 " stroke="#000000" stroke-width="1" stroke-opacity="1" stroke-miterlimit="4"/><path stroke-linecap="butt" transform="matrix(1.139567, 1.039613, -1.010947, 1.108145, 128.991704, 215.121929)" fill="none" stroke-linejoin="miter" d="M -0.000133422 -0.000628633 L 8.27064 -0.00130005 " stroke="#000000" stroke-width="1" stroke-opacity="1" stroke-miterlimit="4"/></svg>